<?xml version="1.0" encoding="UTF-8" standalone="no"?><!DOCTYPE svg PUBLIC "-//W3C//DTD SVG 1.1//EN" "http://www.w3.org/Graphics/SVG/1.1/DTD/svg11.dtd"><svg width="100%" height="100%" viewBox="0 0 1803 555" version="1.1" xmlns="http://www.w3.org/2000/svg" xmlns:xlink="http://www.w3.org/1999/xlink" xml:space="preserve" style="fill-rule:evenodd;clip-rule:evenodd;stroke-linejoin:round;stroke-miterlimit:1.41421;"><path d="M701.23,101.96c19.05,-19.29 38.28,-38.41 57.48,-57.55c45.96,46.15 92.19,92.03 138.05,138.27c-8.38,8.32 -16.84,16.56 -24.99,25.1c-12.16,-11.35 -23.6,-23.47 -35.46,-35.13c-27.14,-27.14 -54.28,-54.28 -81.4,-81.43c-10.21,10.01 -20.25,20.21 -30.37,30.31c-0.85,0.92 -2.41,1.85 -3.28,0.45c-6.69,-6.65 -13.38,-13.32 -20.03,-20.02Z" style="fill:#d2c295;fill-rule:nonzero;"/><path d="M231.54,132.59c8.94,-12.72 28.49,-14.54 40.79,-5.87c8.83,6.7 12.48,17.78 14.83,28.17c2.63,13.88 3.2,28.05 3,42.15c-0.59,13.83 -1.52,27.9 -6.24,41.04c-2.98,8.11 -8.23,16.11 -16.46,19.59c-9.05,3.73 -20,3.37 -28.48,-1.68c-8.35,-5.16 -12.59,-14.71 -15.19,-23.8c-3.81,-14.37 -4.47,-29.37 -4.3,-44.17c0.01,-4.64 -0.18,-9.32 0.63,-13.91c0.79,-14.33 2.95,-29.52 11.42,-41.52Z" style="fill:#fefdfd;fill-rule:nonzero;"/><path d="M1403.93,121.66c6.45,-0.58 13.69,0.1 18.62,4.79c6.84,6.19 9.07,15.63 10.61,24.36c1.83,14.14 1.83,28.55 0.08,42.7c-1.37,8.11 -3.3,16.64 -8.8,23.04c-5.31,6.4 -14.63,8.06 -22.38,6.04c-7.1,-1.51 -12.21,-7.67 -14.79,-14.15c-3.4,-8.71 -4.54,-18.12 -4.92,-27.4c-0.23,-14.36 -0.53,-29.12 4.26,-42.86c2.5,-7.98 8.8,-15.06 17.32,-16.52Z" style="fill:#fefdfd;fill-rule:nonzero;"/><path d="M1632.94,121.69c6.43,-0.66 13.61,0.12 18.54,4.75c6.9,6.32 9.16,15.92 10.65,24.81c1.29,10.84 1.82,21.86 0.81,32.74c-0.52,10.61 -2.08,21.81 -8.17,30.8c-6.23,9.33 -20.04,10.94 -29.33,5.54c-6.93,-4.49 -10.19,-12.6 -11.85,-20.37c-2.8,-11.76 -2.39,-23.92 -2.28,-35.92c0.04,-5.4 0.79,-10.75 1.54,-16.08c1.91,-9.67 5.55,-20.5 15.22,-24.94c1.6,-0.42 3.25,-0.83 4.87,-1.33Z" style="fill:#fefdfd;fill-rule:nonzero;"/><path d="M950.48,123.44c7.98,0 15.96,0 23.95,0c2.42,15.64 5.37,31.23 7.35,46.93l0.66,0.11c0.13,0.81 0.4,2.43 0.54,3.24c1.98,-16.87 5.48,-33.54 8.15,-50.32c7.8,0.08 15.6,0.02 23.41,0.04c0,32.67 0,65.33 0,98c-5.34,0 -10.68,0 -16.01,0c-0.01,-18.81 0,-37.62 -0.01,-56.43c-0.03,-5.14 0.22,-10.3 -0.46,-15.4c-3.26,24.04 -8.21,47.84 -11.88,71.83c-3.43,0 -6.84,0 -10.25,0c-3.94,-24.01 -8.25,-47.96 -11.94,-72.01c-0.74,23.98 -0.11,48.01 -0.33,72.01c-4.39,0 -8.78,0 -13.17,0c-0.01,-32.67 0,-65.33 -0.01,-98Z" style="fill:#fefdfd;fill-rule:nonzero;"/><path d="M1024.87,123.47c13.51,-0.06 27.03,-0.02 40.54,-0.02c0,5.05 0,10.1 0,15.15c-7.54,0.02 -15.07,0.01 -22.6,0.01c-0.04,8.44 -0.02,16.89 -0.02,25.33c5.56,0 11.13,0 16.7,0c0,5.33 -0.01,10.65 0.01,15.97c-5.57,0.08 -11.14,0.04 -16.71,0.05c0,8.78 -0.02,17.55 0.02,26.33c7.85,0.02 15.7,-0.03 23.56,0.03c-0.03,5.04 -0.01,10.07 -0.01,15.12c-13.83,0 -27.65,0 -41.47,0c-0.02,-32.66 0.01,-65.32 -0.02,-97.97Z" style="fill:#fefdfd;fill-rule:nonzero;"/><path d="M1072.93,123.44c11.35,0.5 23.54,-1.81 34.06,3.62c7.24,3.69 11.27,11.4 12.83,19.09c2.49,11.81 1.65,23.94 1.76,35.92c-0.39,9.89 -0.99,20.46 -6.43,29.06c-4.44,7.11 -13.12,10.06 -21.14,10.3c-7.03,0.05 -14.06,-0.02 -21.08,0.01c0,-32.67 -0.01,-65.34 0,-98Z" style="fill:#fefdfd;fill-rule:nonzero;"/><path d="M1130.41,123.44c5.96,0 11.93,-0.01 17.9,0.01c0,32.66 0.01,65.32 0,97.99c-5.97,0 -11.93,0 -17.89,0c-0.02,-32.67 -0.01,-65.33 -0.01,-98Z" style="fill:#fefdfd;fill-rule:nonzero;"/><path d="M1168.59,123.45c8.6,-0.03 17.2,0 25.8,-0.02c0.69,4.47 1.01,8.98 1.74,13.43c3.33,28.2 6.97,56.36 10.46,84.54c-5.75,0.08 -11.49,0.01 -17.22,0.05c-1.06,-7.21 -1.74,-14.48 -2.76,-21.7c-4.73,0.01 -9.46,0.01 -14.18,0c-0.79,7.23 -1.73,14.44 -2.47,21.68c-5.04,0.02 -10.08,0.01 -15.11,0c4.75,-32.63 8.92,-65.35 13.74,-97.98Z" style="fill:#fefdfd;fill-rule:nonzero;"/><path d="M1238.73,123.45c5.96,-0.02 11.93,-0.01 17.9,-0.01c0,32.67 0.01,65.33 -0.01,98c-5.96,-0.01 -11.93,0 -17.89,0c-0.01,-32.67 0,-65.33 0,-97.99Z" style="fill:#fefdfd;fill-rule:nonzero;"/><path d="M1267.03,123.44c5.83,-0.01 11.67,0.02 17.51,-0.02c5.77,17.28 11.21,34.66 16.99,51.94c0.33,-17.3 0.06,-34.61 0.14,-51.91c4.76,-0.01 9.52,-0.01 14.29,-0.01c0.01,32.66 0,65.33 0,97.99c-4.67,0.01 -9.35,0.01 -14.01,0.01c-6.7,-19.85 -13.1,-39.79 -19.73,-59.65c-0.31,19.88 -0.05,39.76 -0.14,59.65c-5.04,0 -10.07,0 -15.1,-0.01c0.02,-32.67 -0.03,-65.33 0.05,-97.99Z" style="fill:#fefdfd;fill-rule:nonzero;"/><path d="M1325.41,123.44c5.87,0.02 11.76,-0.05 17.64,0.06c3.61,11.91 7.82,23.64 11.56,35.52c1.66,5.4 3.74,10.7 4.77,16.28c1.56,-10.37 0.54,-20.89 0.83,-31.33c0,-6.85 -0.01,-13.69 0.01,-20.53c4.72,0 9.44,0 14.17,0.01c0,32.66 0.01,65.32 0,97.99c-4.65,0 -9.3,-0.03 -13.94,0.04c-6.56,-19.4 -12.99,-38.83 -19.33,-58.3c-0.15,0.01 -0.45,0.02 -0.6,0.02c-0.1,19.41 -0.01,38.82 -0.05,58.24c-5.02,0 -10.04,0 -15.06,0c-0.01,-32.67 0,-65.33 0,-98Z" style="fill:#fefdfd;fill-rule:nonzero;"/><path d="M1438.08,123.46c5.74,-0.04 11.48,-0.01 17.23,-0.02c2.6,22.92 5.38,45.82 8.47,68.68c3.06,-22.86 6.22,-45.71 9,-68.61c4.92,-0.11 9.85,-0.08 14.78,-0.04c-5.05,32.65 -9.7,65.38 -14.93,98c-6.75,-0.06 -13.49,-0.05 -20.22,-0.01c-3.81,-23.75 -7.19,-47.59 -10.82,-71.38c-1.15,-8.88 -3.03,-17.67 -3.51,-26.62Z" style="fill:#fefdfd;fill-rule:nonzero;"/><path d="M1500.31,123.41c8.59,0.07 17.17,0 25.77,0.04c2.8,23.17 5.79,46.33 8.52,69.51c1.06,9.49 2.59,18.93 3.25,28.46c-5.72,0.02 -11.43,0.05 -17.14,-0.02c-0.59,-7.24 -1.73,-14.41 -2.42,-21.64c-4.86,-0.01 -9.71,-0.02 -14.56,0.02c-0.34,7.26 -1.43,14.45 -2.3,21.66c-5.03,-0.01 -10.05,0.02 -15.07,-0.02c4.2,-29.8 8.44,-59.59 12.59,-89.4c0.47,-2.87 0.74,-5.77 1.36,-8.61Z" style="fill:#fefdfd;fill-rule:nonzero;"/><path d="M1532.38,123.44c16.29,0.05 32.58,-0.11 48.87,0.08c-0.02,5 -0.02,10 0.01,15c-5.21,0.15 -10.42,0.08 -15.63,0.09c-0.06,27.61 0,55.22 -0.03,82.83c-5.97,-0.01 -11.93,0 -17.89,0c-0.04,-27.62 0.07,-55.23 -0.06,-82.84c-5.09,0.02 -10.18,0.01 -15.27,0.01c-0.01,-5.06 -0.01,-10.11 0,-15.17Z" style="fill:#fefdfd;fill-rule:nonzero;"/><path d="M1584.46,123.44c5.96,0 11.93,-0.01 17.9,0.01c-0.01,32.66 0,65.32 0,97.99c-5.97,0 -11.94,0 -17.9,0c-0.01,-32.67 0,-65.33 0,-98Z" style="fill:#fefdfd;fill-rule:nonzero;"/><path d="M1671.14,123.44c5.85,0 11.71,0.01 17.57,-0.01c5.66,17.35 11.26,34.71 16.95,52.05c0.27,-17.34 0.05,-34.69 0.12,-52.03c4.77,-0.02 9.55,-0.01 14.33,-0.01c0.02,32.66 0.01,65.33 0.01,98c-4.7,0 -9.39,0 -14.07,-0.01c-6.61,-19.84 -13.12,-39.71 -19.66,-59.58c-0.42,19.86 -0.07,39.73 -0.19,59.59c-5.03,0 -10.05,0 -15.07,-0.01c0.01,-32.66 0,-65.33 0.01,-97.99Z" style="fill:#fefdfd;fill-rule:nonzero;"/><path d="M70.75,124.5c10.08,-0.26 20.16,-0.04 30.25,-0.13c9.05,-0.13 18.45,3.22 24.53,10.11c5.76,6.3 7.95,15.16 7.81,23.53c0.17,8.74 -2.46,18.13 -9.25,24.04c-3.32,3.16 -7.72,4.81 -12.08,5.95c8.92,1.98 17.56,7.39 21.23,16.06c4.7,11.08 4.24,24.3 -0.91,35.15c-4.07,8.55 -12.2,14.49 -21.19,17.03c-8.28,1.63 -16.74,0.83 -25.12,1.01c-5.11,-0.13 -10.26,0.41 -15.33,-0.47c0.19,-10.26 -0.03,-20.53 0.13,-30.79c0.01,-11.66 -0.28,-23.33 0.15,-34.99c-0.35,-10.65 -0.31,-21.33 -0.02,-31.99c-0.15,-2 -0.14,-4.01 -0.01,-6.01c-0.4,-9.49 -0.05,-19 -0.19,-28.5Z" style="fill:#fefdfd;fill-rule:nonzero;"/><path d="M146.34,124.38c10.23,0.02 20.45,-0.03 30.68,0.02c9.93,0.34 20.65,3.24 27.13,11.29c7.03,8.71 8.03,20.51 7.36,31.27c-0.73,10.55 -4.59,21.84 -13.8,27.92c4.75,20.78 9.39,41.59 14.24,62.36c-8.16,0.03 -16.31,0 -24.46,0.02c-3.78,-19 -7.61,-37.98 -11.34,-56.99c-1.88,0 -3.77,0 -5.64,0.01c-0.01,18.99 0,37.98 -0.01,56.97c-8.04,0.01 -16.08,-0.02 -24.13,0.02c-0.08,-44.29 -0.01,-88.59 -0.03,-132.89Z" style="fill:#fefdfd;fill-rule:nonzero;"/><path d="M294.53,124.41c7.32,-0.06 14.64,-0.01 21.96,-0.03c3.24,26.1 5.56,52.34 8.92,78.44c2.54,-17.26 5.1,-34.51 7.68,-51.76c1.07,-8.89 2.65,-17.71 3.74,-26.6c7.35,-0.16 14.71,-0.05 22.06,-0.07c2.23,15.86 4.32,31.75 6.48,47.62c1.21,10.18 2.98,20.3 3.77,30.54c1.89,-8.4 2.49,-17.01 3.66,-25.53c2.2,-17.55 4.17,-35.14 6.58,-52.66c5.78,0.05 11.56,-0.01 17.34,0.06c-3.88,29.52 -7.84,59.04 -11.62,88.58c-2.02,14.73 -3.8,29.49 -5.73,44.24c-7.39,0.03 -14.78,0 -22.18,0.02c-0.52,-4.87 -1.4,-9.7 -1.86,-14.58c-2.49,-22.92 -5.94,-45.74 -9.06,-68.59c-0.36,0.02 -1.07,0.06 -1.43,0.07c-0.5,4.02 -0.98,8.04 -1.25,12.08c-3.31,23.68 -6.62,47.37 -10.17,71.02c-7.04,-0.01 -14.07,-0.03 -21.1,0.01c-6.19,-44.25 -11.72,-88.59 -17.79,-132.86Z" style="fill:#fefdfd;fill-rule:nonzero;"/><path d="M403.46,124.41c7.94,-0.02 15.87,-0.1 23.81,0.04c5.78,18.88 11.96,37.63 17.96,56.44c1.38,4.6 2.88,9.16 4.16,13.79c0.22,-2.54 0.37,-5.09 0.37,-7.64c-0.04,-20.86 0,-41.72 -0.03,-62.57c6.47,-0.16 12.94,-0.08 19.42,-0.06c-0.03,44.28 0,88.56 -0.02,132.84c-6.23,0.02 -12.45,-0.05 -18.68,0.06c-7.73,-22.99 -15.07,-46.12 -22.61,-69.17c-1.19,-3.87 -2.5,-7.7 -3.44,-11.64c-0.26,2.81 -0.54,5.62 -0.53,8.45c0.04,24.1 0.01,48.2 0.02,72.3c-6.81,0 -13.61,0.01 -20.42,0c-0.01,-44.28 0.01,-88.56 -0.01,-132.84Z" style="fill:#fefdfd;fill-rule:nonzero;"/><path d="M1405.63,137.68c1.18,-0.71 2.55,-0.97 3.89,-1.33c4.16,3.17 4.46,8.69 4.96,13.47c0.59,11.39 0.38,22.8 0.36,34.2c-0.29,7.07 0.22,14.47 -2.44,21.17c-0.97,2.93 -5.07,4.2 -7.1,1.6c-3.19,-4.18 -2.66,-9.82 -3.42,-14.75c-0.38,-11.32 -0.12,-22.65 -0.16,-33.97c-0.13,-4.78 0.75,-9.51 1.05,-14.27c0.77,-2.09 1.19,-4.5 2.86,-6.12Z" style="fill:#8e1a1c;fill-rule:nonzero;"/><path d="M1635.97,136.79c0.89,-0.08 1.8,-0.15 2.74,-0.23c3.89,3.25 4.22,8.62 4.73,13.3c0.52,11.4 0.33,22.82 0.31,34.22c-0.27,7.09 0.29,14.53 -2.52,21.22c-0.93,2.59 -4.32,3.93 -6.51,2.01c-3.54,-3.41 -2.87,-8.78 -3.91,-13.2c-0.35,-13.37 -0.22,-26.74 -0.12,-40.11c0.43,-5.44 0.67,-11.12 3.23,-16.07c0.52,-0.29 1.54,-0.86 2.05,-1.14Z" style="fill:#8e1a1c;fill-rule:nonzero;"/><path d="M1090.84,138.62c1.43,0 2.89,0 4.36,0c2.17,1.06 4.67,2.18 5.58,4.63c2.69,6.91 1.83,14.5 2.13,21.74c0.55,7.69 -0.19,15.37 -0.09,23.06c-0.2,4.77 -0.28,9.78 -2.36,14.18c-1.75,3.5 -5.99,3.91 -9.42,4.29c-0.48,-22.63 -0.08,-45.27 -0.2,-67.9Z" style="fill:#8e1a1c;fill-rule:nonzero;"/><path d="M1176.92,161.93c1.17,-7.7 1.59,-15.5 3.06,-23.16c1.52,15.6 3.61,31.13 5.05,46.73c-3.58,0 -7.15,0 -10.71,0.02c0.17,-2.19 0.36,-4.37 0.58,-6.55c0.84,-5.66 1.46,-11.35 2.02,-17.04Z" style="fill:#8e1a1c;fill-rule:nonzero;"/><path d="M1506.12,185.51c1.05,-15.68 3.44,-31.26 5.4,-46.85c1.52,13.13 3.05,26.25 4.37,39.4c0.45,2.45 0.62,4.94 0.8,7.43c-3.53,0.01 -7.06,0.01 -10.57,0.02Z" style="fill:#8e1a1c;fill-rule:nonzero;"/><path d="M252.45,142.55c1.63,-0.48 3.44,-0.48 5.05,0.09c2.27,1.39 3.22,4.08 4,6.48c2.47,9.41 2.02,19.23 2.25,28.87c-0.04,11.33 0.11,22.66 -0.13,33.98c0,6.76 -0.42,13.58 -2.04,20.16c-0.85,2.63 -1.76,5.88 -4.6,7.01c-2.7,1.04 -5.95,-0.06 -7.22,-2.71c-2.6,-5.02 -2.91,-10.84 -3.39,-16.37c-0.74,-18.33 -0.72,-36.69 -0.15,-55.03c0.19,-5.45 0.61,-10.96 2.06,-16.24c0.79,-2.36 1.83,-5.02 4.17,-6.24Z" style="fill:#8e1a1c;fill-rule:nonzero;"/><path d="M170.56,143.72c4.77,-0.24 10.39,0.02 13.52,4.23c3.43,4.9 3.52,11.28 3.32,17.04c-0.45,5.12 -1.81,10.9 -6.23,14.08c-3.07,2.31 -7.09,1.72 -10.68,1.84c0.06,-12.4 -0.06,-24.8 0.07,-37.19Z" style="fill:#8e1a1c;fill-rule:nonzero;"/><path d="M95.14,179.04c0.09,-11.86 -0.11,-23.72 0.11,-35.57c4.02,0.46 8.83,0.14 11.83,3.38c2.63,3.06 2.66,7.38 3.09,11.18c0.12,5.7 0.24,12.06 -3.26,16.9c-2.85,3.43 -7.62,3.87 -11.77,4.11Z" style="fill:#8e1a1c;fill-rule:nonzero;"/><path d="M721.34,173.06c-0.19,-13.83 12.61,-26.73 26.63,-25.46c9.59,1.03 18.69,6.03 25.24,13.01c-4.76,4.85 -8.64,10.49 -13.38,15.35c-4.4,-2.75 -7.85,-6.94 -12.76,-8.88c-3.16,-1.7 -7.23,1.45 -6.8,4.89c-0.31,3.98 2.21,7.32 4.31,10.44c6.08,8.51 13.46,15.96 20.28,23.86c-0.94,-5.8 -0.5,-12.31 3.62,-16.87c4.55,-6.1 12.81,-8.43 20.07,-6.71c11.74,2.71 21.04,11.12 28.91,19.82c8.05,9.28 14.89,20.79 14.56,33.46c-0.36,11.96 -9.62,22.74 -21.13,25.49c-14.76,2.5 -27.9,-6.69 -38.88,-15.32c-13.57,-11.44 -26.16,-24.21 -36.7,-38.52c-7.15,-10.19 -13.96,-21.74 -13.97,-34.56Z" style="fill:#d2c295;fill-rule:nonzero;"/><path d="M344.84,174.16c0.36,-0.01 1.07,-0.05 1.43,-0.07c3.12,22.85 6.57,45.67 9.06,68.59l0.06,0.78c-0.43,-1.78 -0.82,-3.55 -1.09,-5.36c-2.94,-20.72 -5.89,-41.45 -8.6,-62.21c-0.64,3.46 -1.21,6.94 -2.11,10.35c0.27,-4.04 0.75,-8.06 1.25,-12.08Z" style="fill:#c78f8e;fill-rule:nonzero;"/><path d="M691.35,194.8c12.04,11.21 23.33,23.21 35.08,34.73c15.58,15.6 31.19,31.16 46.75,46.78c3.83,-3.12 7.07,-6.88 10.72,-10.2c4.26,4.28 8.57,8.52 12.74,12.89c-11.85,11.99 -23.68,24.03 -35.81,35.72c-0.3,-0.07 -0.91,-0.21 -1.21,-0.28c-4.27,-3.67 -7.93,-8 -12.09,-11.8c3.2,-3.72 6.82,-7.05 10.24,-10.58c-20.96,-20.78 -41.55,-41.94 -62.75,-62.48c-2.77,3.88 -5.56,7.76 -8.22,11.71c-3.98,-3.04 -7.23,-6.87 -10.84,-10.31c2.51,-7.24 5.43,-14.39 6.9,-21.94c0.5,-2.24 0.48,-4.61 1.31,-6.76c2.07,-2.78 4.79,-4.98 7.18,-7.48Z" style="fill:#d2c295;fill-rule:nonzero;"/><path d="M95.16,199.44c5.21,0.24 11.46,1.06 14.36,6.02c2.72,4.88 2.65,10.74 2.48,16.18c-0.29,4.56 -0.6,9.85 -4.35,13.04c-3.41,3.02 -8.21,2.97 -12.48,3.02c-0.02,-12.76 -0.02,-25.51 -0.01,-38.26Z" style="fill:#8e1a1c;fill-rule:nonzero;"/><path d="M778.46,205.61c4.17,-1.43 8.25,1.09 11.5,3.49c6.58,5.02 12.34,11.06 17.68,17.36c2.5,3.11 5.36,6.43 5.62,10.6c-0.5,2.08 -1.84,4.63 -4.26,4.74c-4.33,0.64 -8,-2.18 -11.26,-4.59c-6.81,-5.46 -12.89,-11.75 -19.03,-17.92c-1.73,-1.78 -3.66,-3.42 -4.99,-5.53c-0.07,-3.27 1.98,-6.47 4.74,-8.15Z" style="fill:#8e1a1c;fill-rule:nonzero;"/><path d="M649.51,239.7c9.96,-2.02 19.91,1.42 28.43,6.42c14.53,8.56 26.91,20.25 38.41,32.47c8.87,9.76 17.44,20.14 22.78,32.32c2.84,6.86 4.7,14.64 2.55,21.96c-2.88,9.81 -12.41,17.42 -22.71,17.53c-10.5,0 -20.02,-5.28 -28.52,-10.94c-13.15,-9.24 -24.87,-20.4 -35.56,-32.35c-10.08,-11.51 -20.33,-24.14 -23.24,-39.56c-2.5,-12.12 6.15,-24.7 17.86,-27.85Z" style="fill:#d2c295;fill-rule:nonzero;"/><path d="M652.44,258.36c1.74,-1.69 4.22,-0.55 6.08,0.29c5.58,2.72 10.12,7.03 14.84,10.98c13.49,12.15 26.3,25.06 38.52,38.51c3.73,4.34 7.57,8.67 10.48,13.65c1.34,2.21 1.92,5.04 1,7.53c-1.26,2.1 -4,2.84 -6.19,1.79c-6.89,-3.08 -12.38,-8.43 -18.06,-13.25c-11.77,-10.88 -23.06,-22.25 -34.04,-33.93c-4.95,-5.73 -10.34,-11.25 -13.86,-18.03c-1.33,-2.42 -1.54,-6.05 1.23,-7.54Z" style="fill:#8e1a1c;fill-rule:nonzero;"/><path d="M961.81,265.8c6.78,-4.56 15.38,-5.61 23.32,-4.38c6.97,1.08 13.66,4.93 17.45,10.98c5.62,8.6 7.02,19.15 7.31,29.21c-7.22,0.03 -14.44,-0.01 -21.66,0.02c-0.16,-5.39 -0.08,-11.16 -2.75,-16.01c-2.41,-4.37 -9.23,-5.6 -12.71,-1.87c-3.71,3.57 -3.88,9.23 -3.01,13.97c2.27,8.21 9.24,13.7 15.24,19.22c10.28,8.66 21.01,18.12 25.4,31.27c4.23,13.26 3.04,29.09 -5.8,40.27c-8.62,10.87 -24.54,13.65 -37.18,9.06c-8.43,-3.12 -14,-11.15 -16.38,-19.54c-1.76,-6.37 -2.55,-13.01 -2.48,-19.61c7.22,-0.01 14.45,0 21.68,0c0.19,5.96 -0.25,12.66 3.67,17.63c2.39,3.29 7.04,3.34 10.58,2.23c4.1,-2.11 6.34,-6.72 6.41,-11.22c0.47,-5.86 -2.47,-11.37 -6.3,-15.59c-8.44,-9.32 -19.67,-15.76 -27.29,-25.87c-8.44,-10.36 -11.41,-24.58 -8.83,-37.58c1.38,-8.72 5.88,-17.21 13.33,-22.19Z" style="fill:#fefdfd;fill-rule:nonzero;"/><path d="M1119.18,264.35c8.35,-4.42 18.81,-4.49 27.45,-0.82c8.33,3.74 13.58,11.99 16.49,20.35c4.31,12.56 5.4,25.94 5.91,39.13c0.21,18.85 -0.2,38.23 -6.79,56.13c-2.86,6.62 -6.96,13.11 -13.37,16.76c-7.8,4.35 -17.5,4.75 -25.9,2.04c-9.7,-3.3 -15.8,-12.54 -18.88,-21.87c-6.05,-18.02 -5.91,-37.33 -5.64,-56.12c0.66,-13.34 1.95,-26.96 7.14,-39.4c2.88,-6.5 7.09,-12.88 13.59,-16.2Z" style="fill:#fefdfd;fill-rule:nonzero;"/><path d="M1290.79,275.71c3.92,-6.86 10.37,-12.71 18.32,-14.21c9.15,-1.6 19.57,0.16 26.29,7.01c6.3,6.49 8.58,15.66 9.76,24.37c0.62,6.08 1.14,12.18 0.98,18.3c-7.22,0.17 -14.43,0.61 -21.65,0.74c-0.11,-4.32 -0.05,-8.65 -0.31,-12.97c-0.64,-3.71 -1.02,-7.45 -1.85,-11.12c-1.14,-2.38 -2.39,-5.11 -5.03,-6.11c-2.55,-0.65 -5.37,0.59 -6.64,2.86c-1.51,2.54 -2.07,5.48 -2.87,8.29c-1.67,11.98 -2.28,24.09 -2.17,36.18c0.15,15.08 -0.41,30.39 3.05,45.16c1.53,2.67 3.87,4.7 7,5.17c3.62,-0.75 6.62,-3.3 7.64,-6.91c2.6,-8.06 2.75,-16.69 3.02,-25.08c6.71,0.22 13.42,0.4 20.14,0.47c0.71,11.43 -0.32,23.21 -4.48,33.95c-2.88,7.62 -9.08,13.89 -16.83,16.51c-6.66,1.64 -13.67,1.72 -20.31,-0.01c-7.67,-2.74 -13.59,-9.04 -16.79,-16.43c-5.64,-12.82 -6.95,-27.02 -7.53,-40.86c-0.07,-11.38 -0.43,-22.81 1.1,-34.12c1.34,-10.77 3.68,-21.69 9.16,-31.19Z" style="fill:#fefdfd;fill-rule:nonzero;"/><path d="M1439.38,266.51c7.79,-5.78 18.31,-6.75 27.51,-4.37c6.86,1.72 12.61,6.72 15.86,12.93c4.34,8.11 5.28,17.49 5.72,26.53c-7.25,0.03 -14.5,0.01 -21.74,0.02c-0.13,-5.54 0.15,-11.54 -2.94,-16.4c-2.58,-4.33 -9.5,-4.97 -12.81,-1.21c-5.59,6.93 -2.94,17.18 2.6,23.33c8.26,9.48 19.33,16.11 27.04,26.12c3.81,4.54 6.6,9.85 8.6,15.43c3.11,11.12 2.75,23.44 -2.4,33.9c-2.95,6.08 -8.02,11.07 -14.16,13.87c-6.75,3.05 -14.45,3.56 -21.68,2.34c-7.38,-1.27 -13.97,-6 -17.69,-12.47c-4.95,-8.45 -6.18,-18.51 -6.17,-28.14c7.2,-0.01 14.41,0.01 21.61,-0.01c0.24,5.83 -0.01,12.32 3.49,17.33c2.26,3.35 6.76,3.69 10.35,2.7c4.83,-1.95 7.08,-7.48 6.95,-12.41c0.21,-4.44 -1.87,-8.61 -4.38,-12.13c-5.51,-7.49 -13.57,-12.43 -20.2,-18.8c-6.02,-5.44 -11.66,-11.59 -14.94,-19.11c-3.99,-8.71 -4.65,-18.64 -3.05,-28c1.52,-8.25 5.5,-16.43 12.43,-21.45Z" style="fill:#fefdfd;fill-rule:nonzero;"/><path d="M1022.38,263.86c8.05,-0.09 16.1,0 24.16,-0.05c0.07,17.91 0,35.82 0.03,53.73c5.06,0.01 10.12,0 15.19,0c-0.03,-17.77 0.07,-35.55 -0.06,-53.33c8.12,-0.82 16.3,-0.2 24.45,-0.38c0,44.28 0,88.57 -0.01,132.86c-8.13,-0.06 -16.27,0.13 -24.39,-0.11c0.01,-18.69 0.05,-37.39 -0.03,-56.08c-5.05,0.01 -10.1,0.01 -15.14,0.01c-0.03,18.72 0,37.45 -0.01,56.18c-8.06,0 -16.12,0.01 -24.17,-0.01c-0.01,-44.27 0.02,-88.55 -0.02,-132.82Z" style="fill:#fefdfd;fill-rule:nonzero;"/><path d="M1173.44,263.83c7.32,-0.02 14.64,0 21.97,-0.01c0.76,4.69 0.96,9.45 1.69,14.15c2.27,21.38 4.62,42.77 7.14,64.12c4.12,-26.04 7.64,-52.18 11.57,-78.25c7.29,-0.04 14.58,0.02 21.87,-0.05c2.91,20.12 5.7,40.27 8.07,60.45l0.45,0.67c0.43,5.71 1.42,11.36 2.1,17.05c3.46,-23.2 5.81,-46.57 8.86,-69.83c0.35,-2.61 0.46,-5.24 0.6,-7.87c5.91,-0.83 11.9,-0.31 17.86,-0.42c-5.76,44.25 -11.83,88.47 -17.28,132.76c-7.44,0.17 -14.89,0.09 -22.33,0.06c-3.38,-27.94 -8.05,-55.72 -11.02,-83.69c-0.3,0.98 -0.88,2.93 -1.18,3.91c-3.5,25.05 -7.26,50.07 -10.67,75.13c-0.32,1.55 -0.57,3.12 -0.81,4.69c-7.08,-0.03 -14.16,0.03 -21.23,-0.04c-5.85,-44.28 -11.81,-88.55 -17.66,-132.83Z" style="fill:#fefdfd;fill-rule:nonzero;"/><path d="M1370.84,264.33c11.77,-1.14 23.66,-0.21 35.49,-0.51c0.56,4.71 1.09,9.43 1.76,14.14c4.8,39.57 9.9,79.11 14.6,118.69c-7.75,0.09 -15.5,0.01 -23.24,0.05c-1.43,-9.72 -2.36,-19.5 -3.7,-29.22c-6.43,0.02 -12.85,0 -19.26,0.01c-0.65,3.84 -1.04,7.71 -1.38,11.59c-0.76,5.82 -1.53,11.65 -1.84,17.52c-6.9,0.15 -13.79,0.14 -20.67,0.01c0.97,-5.23 1.64,-10.51 2.24,-15.79c3.33,-23.26 6.46,-46.55 9.81,-69.8c1.99,-15.57 4.88,-31.04 6.19,-46.69Z" style="fill:#fefdfd;fill-rule:nonzero;"/><path d="M1500.68,264.24c18.25,-0.96 36.59,-0.15 54.88,-0.42c-0.02,6.86 0.03,13.71 -0.04,20.56c-10.13,-0.02 -20.26,0 -30.39,-0.01c-0.01,11.37 0,22.74 -0.01,34.11c7.53,0.01 15.05,0.01 22.59,0.01c0,7.22 -0.01,14.45 0,21.68c-7.53,0.02 -15.06,0 -22.58,0.01c0,12.04 -0.03,24.08 0.02,36.12c10.52,-0.01 21.06,0 31.59,-0.01c-0.01,6.8 -0.01,13.6 -0.01,20.4c-18.67,-0.06 -37.34,0.14 -56,-0.1c-0.01,-44.12 0.09,-88.24 -0.05,-132.35Z" style="fill:#fefdfd;fill-rule:nonzero;"/><path d="M1128.56,284.79c1.45,-3.17 6.01,-4.32 8.69,-2c2.06,1.9 2.91,4.7 3.56,7.35c2.05,9.47 1.69,19.21 1.84,28.84c-0.06,13.33 0.17,26.67 -0.31,39.99c-0.77,5.89 -0.69,12.29 -3.94,17.5c-1.44,2.69 -5.06,2.88 -7.58,1.82c-3.01,-2.23 -3.84,-6.18 -4.51,-9.64c-2.05,-12.78 -1.49,-25.77 -1.56,-38.67c0.02,-8.34 -0.09,-16.69 0.14,-25.03c0.89,-6.75 0.55,-13.92 3.67,-20.16Z" style="fill:#8e1a1c;fill-rule:nonzero;"/><path d="M1385.86,289.92c0.41,-1.89 0.78,-3.8 1.15,-5.7c1.62,21.44 4.66,42.75 6.66,64.17c-4.88,-0.02 -9.74,-0.02 -14.6,0c1.73,-19.54 4.59,-38.97 6.79,-58.47Z" style="fill:#8e1a1c;fill-rule:nonzero;"/><path d="M581.74,317.93c-2.56,-16.61 12.39,-33.65 29.28,-32.78c10.37,-0.1 19.7,5.92 26.52,13.31c11.09,12.23 15.79,28.68 18.85,44.54c2.78,12.91 3.27,26.21 6.14,39.08c9.09,-9.02 17.88,-18.38 27.31,-27.04c4.6,4.83 9.48,9.37 14.07,14.2c0.94,0.67 1.01,1.89 0.03,2.57c-12.46,12.57 -25.05,25.02 -37.51,37.6c-1.33,1.28 -2.57,2.77 -4.29,3.53c-2.82,-2.19 -5.1,-4.97 -7.7,-7.4c-1.89,-1.92 -4.22,-3.7 -4.87,-6.45c-5.62,-21.25 -8.91,-43.24 -17.35,-63.65c-4.42,-10.83 -11.42,-20.92 -21.33,-27.38c-2.57,-1.71 -6.54,-2.6 -8.92,-0.11c-2.13,1.78 -1.93,4.9 -1.21,7.31c2.24,6.33 7.44,10.84 11.34,16.1c-5.36,4.35 -10.58,8.86 -15.95,13.18c-7.18,-7.24 -13.04,-16.33 -14.41,-26.61Z" style="fill:#d2c295;fill-rule:nonzero;"/><path d="M161.15,304.15c7.65,-11.72 27.65,-12.74 35.81,-1.12c4.38,6.3 5.44,14.2 5.64,21.68c-5.34,0.02 -10.68,-0.01 -16.02,0.03c-0.12,-4.09 0.02,-8.46 -2.21,-12.08c-2.27,-3.6 -8.28,-3.3 -10.44,0.3c-2.83,4.46 -1.61,10.54 1.62,14.48c7.09,8.64 17.39,14.08 23.82,23.34c7.22,9.91 8.07,24.01 2.17,34.75c-6.4,11.43 -22.88,14.5 -33.71,7.86c-8.67,-5.82 -10.66,-17.23 -10.56,-26.95c5.34,-0.01 10.68,0 16.02,-0.01c-0.12,5.46 0.25,11.88 5.35,15.15c2.43,-0.16 5.17,0.24 7.16,-1.49c3.1,-2.4 3.76,-6.6 3.57,-10.27c-2.55,-8.62 -10.57,-13.5 -17.05,-18.96c-6.99,-5.65 -13.4,-12.88 -15.27,-21.93c-1.61,-8.34 -0.8,-17.63 4.1,-24.78Z" style="fill:#fefdfd;fill-rule:nonzero;"/><path d="M73.48,394.8c0,-32.67 -0.01,-65.33 0,-98c5.97,0 11.93,0 17.9,0.01c0,32.66 0.01,65.33 -0.01,98c-5.96,-0.01 -11.93,0 -17.89,-0.01Z" style="fill:#fefdfd;fill-rule:nonzero;"/><path d="M101.73,296.81c5.86,-0.01 11.72,-0.01 17.59,0c4.27,13.24 8.57,26.48 12.96,39.68c1.18,3.45 1.87,7.14 4.01,10.19c0.43,-16.62 0.06,-33.25 0.19,-49.88c4.74,0 9.49,0 14.24,0.01c-0.01,32.66 0,65.33 -0.01,97.99c-4.62,-0.06 -9.24,0.16 -13.85,-0.08c-7.06,-19.66 -13.21,-39.65 -19.92,-59.44c-0.33,19.84 -0.05,39.68 -0.14,59.52c-5.03,0 -10.05,0 -15.07,0.01c-0.01,-32.67 0,-65.34 0,-98Z" style="fill:#fefdfd;fill-rule:nonzero;"/><path d="M204.7,297.24c1.76,-0.23 3.53,-0.44 5.31,-0.46c14.53,0.03 29.06,0.04 43.6,0c0.05,5.13 0.09,10.27 -0.05,15.4c-5.07,-0.05 -10.15,-0.03 -15.23,-0.02c0,27.55 0.01,55.1 0,82.65c-5.97,-0.01 -11.93,0 -17.9,-0.01c0,-27.55 0.01,-55.1 0,-82.65c-5.24,-0.07 -10.5,0.31 -15.69,-0.47c0.08,-4.81 0.09,-9.63 -0.04,-14.44Z" style="fill:#fefdfd;fill-rule:nonzero;"/><path d="M257.18,296.81c5.97,-0.01 11.93,-0.01 17.9,-0.01c0,32.67 0,65.34 0,98c-5.97,0 -11.93,0 -17.9,0c0,-32.66 0,-65.33 0,-97.99Z" style="fill:#fefdfd;fill-rule:nonzero;"/><path d="M278.61,311.81c-0.32,-5 -0.04,-10.01 -0.11,-15.01c16.27,0.02 32.55,-0.02 48.82,0.02c0,5 -0.02,10.01 0.03,15.01c-5.17,0.53 -10.37,0.28 -15.55,0.32c-0.01,27.55 0,55.1 -0.01,82.65c-5.97,0 -11.93,0 -17.9,0c-0.01,-27.55 0,-55.1 0,-82.65c-5.07,-0.23 -10.35,0.49 -15.28,-0.34Z" style="fill:#fefdfd;fill-rule:nonzero;"/><path d="M330.64,296.81c5.96,-0.01 11.93,-0.01 17.89,-0.01c0.05,26.47 -0.04,52.94 0.05,79.41c0.86,2.09 2.22,3.91 4,5.32c1.61,-0.03 3.23,-0.03 4.85,-0.03c2.64,-2 4.55,-5 4.25,-8.42c0.1,-25.42 0.01,-50.85 0.04,-76.27c5.03,-0.01 10.05,-0.01 15.07,0c-0.01,25.4 0.02,50.79 0,76.19c-0.23,6.94 -1.94,14.67 -7.6,19.24c-5.66,4.57 -13.4,4.97 -20.34,4.21c-6.29,-0.71 -12.44,-4.39 -15.17,-10.24c-2.09,-4.43 -3.02,-9.38 -3.06,-14.26c0.04,-25.05 0.01,-50.1 0.02,-75.14Z" style="fill:#fefdfd;fill-rule:nonzero;"/><path d="M380.43,312.18c-0.16,-5.13 -0.1,-10.26 -0.07,-15.39c16.14,0.03 32.27,0 48.41,0.02c-0.01,5.11 0.03,10.23 -0.05,15.35c-5.06,-0.01 -10.12,0 -15.17,-0.01c-0.02,27.55 -0.01,55.1 -0.01,82.65c-5.97,0.01 -11.93,0 -17.9,0.01c-0.01,-27.55 0,-55.1 0,-82.65c-5.07,-0.01 -10.14,-0.03 -15.21,0.02Z" style="fill:#fefdfd;fill-rule:nonzero;"/><path d="M433.33,394.8c0.03,-32.68 -0.07,-65.35 0.05,-98.03c13.48,0.07 26.96,0.01 40.44,0.04c-0.01,5.11 0.03,10.23 -0.06,15.35c-7.51,-0.01 -15.02,-0.01 -22.53,0c0,8.39 0.01,16.78 0,25.17c5.5,0.01 11.01,0.01 16.52,0.01c0,5.34 -0.01,10.67 0,16.01c-5.5,0.01 -11.01,0.01 -16.51,0.01c0,8.74 -0.03,17.48 0.01,26.23c7.84,-0.01 15.67,0 23.51,-0.01c0,5.07 0,10.15 0,15.22c-13.81,0 -27.62,0.01 -41.43,0Z" style="fill:#fefdfd;fill-rule:nonzero;"/><path d="M542.35,336.4c1.09,-1.2 3.03,-3.21 4.4,-1.15c38.16,38.34 76.62,76.41 114.64,114.89c2.62,-1.92 4.92,-4.24 7.15,-6.6c8.48,-8.45 16.9,-16.96 25.42,-25.38c7.09,7.24 14.57,14.12 21.36,21.64c-19.19,19 -38.15,38.23 -57.34,57.23c-25.17,-24.87 -50.04,-50.03 -75.12,-74.99c-20.84,-21.07 -42.11,-41.76 -62.73,-63.04c7.07,-7.83 14.94,-14.95 22.22,-22.6Z" style="fill:#d2c295;fill-rule:nonzero;"/></svg>